<?xml version="1.0" standalone="no"?>
<!DOCTYPE svg PUBLIC "-//W3C//DTD SVG 20010904//EN"
 "http://www.w3.org/TR/2001/REC-SVG-20010904/DTD/svg10.dtd">
<svg version="1.0" xmlns="http://www.w3.org/2000/svg"
 width="700.000000pt" height="700.000000pt" viewBox="0 0 700.000000 700.000000"
 preserveAspectRatio="xMidYMid meet">
<metadata>
Created by potrace 1.14, written by Peter Selinger 2001-2017
</metadata>
<g transform="translate(0.000000,700.000000) scale(0.100000,-0.100000)"
fill="#000000" stroke="none">
<path d="M3280 6994 c-19 -2 -84 -9 -145 -14 -578 -56 -1180 -283 -1660 -625
-237 -169 -531 -446 -709 -670 -416 -521 -673 -1147 -748 -1820 -17 -155 -17
-575 0 -730 109 -983 603 -1848 1396 -2444 489 -367 1076 -597 1721 -673 167
-19 597 -16 770 6 577 73 1075 257 1545 571 405 271 779 660 1033 1075 274
449 433 916 499 1465 16 136 16 592 0 730 -86 725 -352 1347 -803 1885 -122
145 -351 370 -494 484 -510 407 -1117 661 -1775 742 -117 15 -553 27 -630 18z
m870 -1884 l0 -340 -880 0 -880 0 0 -465 0 -465 795 0 795 0 0 -340 0 -340
-795 0 -795 0 0 -805 0 -805 -410 0 -410 0 0 1950 0 1950 1290 0 1290 0 0
-340z m906 -2661 c86 -16 157 -53 230 -121 75 -71 120 -153 137 -252 32 -187
-76 -388 -258 -477 -68 -33 -73 -34 -190 -34 -116 0 -122 1 -190 34 -271 133
-345 482 -148 701 58 65 112 102 188 128 95 34 141 38 231 21z"/>
</g>
</svg>
